<svg xmlns="http://www.w3.org/2000/svg" viewBox="0 0 720 628" width="720" height="628" role="img" aria-labelledby="t"><title id="t">INSP per-zone snapshot, INRB-UMIE consortium release at as_of 2026-05-29</title><text x="20.0" y="18.0" font-family="Helvetica,Arial,sans-serif" font-size="9" fill="#1a1a1a" font-weight="normal" text-anchor="start">Confirmed cases (orange), suspected cases (blue), and confirmed deaths (black tick) per LOVS source zone; sibling-HZ clusters tagged.</text><line x1="150.0" y1="42.0" x2="630.0" y2="42.0" stroke="#7d7d7d" stroke-width="1"/><line x1="150.0" y1="39.0" x2="150.0" y2="42.0" stroke="#7d7d7d" stroke-width="1"/><text x="150.0" y="37.0" font-family="Helvetica,Arial,sans-serif" font-size="8" fill="#7d7d7d" font-weight="normal" text-anchor="middle">0</text><line x1="246.0" y1="39.0" x2="246.0" y2="42.0" stroke="#7d7d7d" stroke-width="1"/><text x="246.0" y="37.0" font-family="Helvetica,Arial,sans-serif" font-size="8" fill="#7d7d7d" font-weight="normal" text-anchor="middle">2</text><line x1="342.0" y1="39.0" x2="342.0" y2="42.0" stroke="#7d7d7d" stroke-width="1"/><text x="342.0" y="37.0" font-family="Helvetica,Arial,sans-serif" font-size="8" fill="#7d7d7d" font-weight="normal" text-anchor="middle">4</text><line x1="438.0" y1="39.0" x2="438.0" y2="42.0" stroke="#7d7d7d" stroke-width="1"/><text x="438.0" y="37.0" font-family="Helvetica,Arial,sans-serif" font-size="8" fill="#7d7d7d" font-weight="normal" text-anchor="middle">6</text><line x1="534.0" y1="39.0" x2="534.0" y2="42.0" stroke="#7d7d7d" stroke-width="1"/><text x="534.0" y="37.0" font-family="Helvetica,Arial,sans-serif" font-size="8" fill="#7d7d7d" font-weight="normal" text-anchor="middle">8</text><line x1="630.0" y1="39.0" x2="630.0" y2="42.0" stroke="#7d7d7d" stroke-width="1"/><text x="630.0" y="37.0" font-family="Helvetica,Arial,sans-serif" font-size="8" fill="#7d7d7d" font-weight="normal" text-anchor="middle">10</text><text x="142.0" y="64.0" font-family="Helvetica,Arial,sans-serif" font-size="10" fill="#1a1a1a" font-weight="normal" text-anchor="end">aru</text><rect x="150.0" y="55.5" width="1.0" height="11.0" fill="#9bbcd4"/><rect x="150.0" y="55.5" width="96.0" height="11.0" fill="#c66020"/><line x1="198.0" y1="53.5" x2="198.0" y2="68.5" stroke="#1a1a1a" stroke-width="2"/><text x="636.0" y="64.0" font-family="Helvetica,Arial,sans-serif" font-size="9" fill="#7d7d7d" font-weight="normal" text-anchor="start">c=2 s=0 d=1</text><text x="142.0" y="86.0" font-family="Helvetica,Arial,sans-serif" font-size="10" fill="#1a1a1a" font-weight="normal" text-anchor="end">aungba</text><rect x="150.0" y="77.5" width="1.0" height="11.0" fill="#9bbcd4"/><rect x="150.0" y="77.5" width="48.0" height="11.0" fill="#c66020"/><text x="636.0" y="86.0" font-family="Helvetica,Arial,sans-serif" font-size="9" fill="#7d7d7d" font-weight="normal" text-anchor="start">c=1 s=0 d=0</text><text x="142.0" y="108.0" font-family="Helvetica,Arial,sans-serif" font-size="10" fill="#1a1a1a" font-weight="normal" text-anchor="end">bambu</text><rect x="150.0" y="99.5" width="1.0" height="11.0" fill="#9bbcd4"/><rect x="150.0" y="99.5" width="96.0" height="11.0" fill="#c66020"/><line x1="246.0" y1="97.5" x2="246.0" y2="112.5" stroke="#1a1a1a" stroke-width="2"/><text x="636.0" y="108.0" font-family="Helvetica,Arial,sans-serif" font-size="9" fill="#7d7d7d" font-weight="normal" text-anchor="start">c=2 s=0 d=2</text><text x="142.0" y="130.0" font-family="Helvetica,Arial,sans-serif" font-size="10" fill="#1a1a1a" font-weight="normal" text-anchor="end">beni-cod</text><rect x="150.0" y="121.5" width="1.0" height="11.0" fill="#9bbcd4"/><rect x="150.0" y="121.5" width="96.0" height="11.0" fill="#c66020"/><text x="636.0" y="130.0" font-family="Helvetica,Arial,sans-serif" font-size="9" fill="#7d7d7d" font-weight="normal" text-anchor="start">c=2 s=0 d=0</text><text x="142.0" y="152.0" font-family="Helvetica,Arial,sans-serif" font-size="10" fill="#1a1a1a" font-weight="normal" text-anchor="end">bunia</text><rect x="150.0" y="143.5" width="1.0" height="11.0" fill="#9bbcd4"/><rect x="150.0" y="143.5" width="3840.0" height="11.0" fill="#c66020"/><line x1="534.0" y1="141.5" x2="534.0" y2="156.5" stroke="#1a1a1a" stroke-width="2"/><text x="636.0" y="152.0" font-family="Helvetica,Arial,sans-serif" font-size="9" fill="#7d7d7d" font-weight="normal" text-anchor="start">c=80 s=0 d=8</text><text x="142.0" y="174.0" font-family="Helvetica,Arial,sans-serif" font-size="10" fill="#1a1a1a" font-weight="normal" text-anchor="end">butembo</text><rect x="150.0" y="165.5" width="1.0" height="11.0" fill="#9bbcd4"/><rect x="150.0" y="165.5" width="240.0" height="11.0" fill="#c66020"/><line x1="246.0" y1="163.5" x2="246.0" y2="178.5" stroke="#1a1a1a" stroke-width="2"/><text x="636.0" y="174.0" font-family="Helvetica,Arial,sans-serif" font-size="9" fill="#7d7d7d" font-weight="normal" text-anchor="start">c=5 s=0 d=2</text><text x="142.0" y="196.0" font-family="Helvetica,Arial,sans-serif" font-size="10" fill="#1a1a1a" font-weight="normal" text-anchor="end">damas</text><rect x="150.0" y="187.5" width="1.0" height="11.0" fill="#9bbcd4"/><rect x="150.0" y="187.5" width="48.0" height="11.0" fill="#c66020"/><text x="636.0" y="196.0" font-family="Helvetica,Arial,sans-serif" font-size="9" fill="#7d7d7d" font-weight="normal" text-anchor="start">c=1 s=0 d=0</text><text x="142.0" y="218.0" font-family="Helvetica,Arial,sans-serif" font-size="10" fill="#1a1a1a" font-weight="normal" text-anchor="end">gety</text><rect x="150.0" y="209.5" width="1.0" height="11.0" fill="#9bbcd4"/><rect x="150.0" y="209.5" width="48.0" height="11.0" fill="#c66020"/><text x="636.0" y="218.0" font-family="Helvetica,Arial,sans-serif" font-size="9" fill="#7d7d7d" font-weight="normal" text-anchor="start">c=1 s=0 d=0</text><text x="142.0" y="240.0" font-family="Helvetica,Arial,sans-serif" font-size="10" fill="#1a1a1a" font-weight="normal" text-anchor="end">goma-cod</text><rect x="150.0" y="231.5" width="1.0" height="11.0" fill="#9bbcd4"/><rect x="150.0" y="231.5" width="48.0" height="11.0" fill="#c66020"/><text x="636.0" y="240.0" font-family="Helvetica,Arial,sans-serif" font-size="9" fill="#7d7d7d" font-weight="normal" text-anchor="start">c=1 s=0 d=0</text><text x="142.0" y="262.0" font-family="Helvetica,Arial,sans-serif" font-size="10" fill="#1a1a1a" font-weight="normal" text-anchor="end">kalunguta</text><rect x="150.0" y="253.5" width="1.0" height="11.0" fill="#9bbcd4"/><rect x="150.0" y="253.5" width="48.0" height="11.0" fill="#c66020"/><line x1="198.0" y1="251.5" x2="198.0" y2="266.5" stroke="#1a1a1a" stroke-width="2"/><text x="636.0" y="262.0" font-family="Helvetica,Arial,sans-serif" font-size="9" fill="#7d7d7d" font-weight="normal" text-anchor="start">c=1 s=0 d=1</text><text x="142.0" y="284.0" font-family="Helvetica,Arial,sans-serif" font-size="10" fill="#1a1a1a" font-weight="normal" text-anchor="end">karisimbi-cod  (cluster: goma-greater)</text><rect x="150.0" y="275.5" width="1.0" height="11.0" fill="#9bbcd4"/><rect x="150.0" y="275.5" width="1.0" height="11.0" fill="#c66020"/><text x="636.0" y="284.0" font-family="Helvetica,Arial,sans-serif" font-size="9" fill="#7d7d7d" font-weight="normal" text-anchor="start">c=0 s=0 d=0</text><text x="142.0" y="306.0" font-family="Helvetica,Arial,sans-serif" font-size="10" fill="#1a1a1a" font-weight="normal" text-anchor="end">katwa</text><rect x="150.0" y="297.5" width="1.0" height="11.0" fill="#9bbcd4"/><rect x="150.0" y="297.5" width="192.0" height="11.0" fill="#c66020"/><line x1="294.0" y1="295.5" x2="294.0" y2="310.5" stroke="#1a1a1a" stroke-width="2"/><text x="636.0" y="306.0" font-family="Helvetica,Arial,sans-serif" font-size="9" fill="#7d7d7d" font-weight="normal" text-anchor="start">c=4 s=0 d=3</text><text x="142.0" y="328.0" font-family="Helvetica,Arial,sans-serif" font-size="10" fill="#1a1a1a" font-weight="normal" text-anchor="end">kilo</text><rect x="150.0" y="319.5" width="1.0" height="11.0" fill="#9bbcd4"/><rect x="150.0" y="319.5" width="96.0" height="11.0" fill="#c66020"/><text x="636.0" y="328.0" font-family="Helvetica,Arial,sans-serif" font-size="9" fill="#7d7d7d" font-weight="normal" text-anchor="start">c=2 s=0 d=0</text><text x="142.0" y="350.0" font-family="Helvetica,Arial,sans-serif" font-size="10" fill="#1a1a1a" font-weight="normal" text-anchor="end">komanda</text><rect x="150.0" y="341.5" width="1.0" height="11.0" fill="#9bbcd4"/><rect x="150.0" y="341.5" width="48.0" height="11.0" fill="#c66020"/><text x="636.0" y="350.0" font-family="Helvetica,Arial,sans-serif" font-size="9" fill="#7d7d7d" font-weight="normal" text-anchor="start">c=1 s=0 d=0</text><text x="142.0" y="372.0" font-family="Helvetica,Arial,sans-serif" font-size="10" fill="#1a1a1a" font-weight="normal" text-anchor="end">kyondo</text><rect x="150.0" y="363.5" width="1.0" height="11.0" fill="#9bbcd4"/><rect x="150.0" y="363.5" width="48.0" height="11.0" fill="#c66020"/><text x="636.0" y="372.0" font-family="Helvetica,Arial,sans-serif" font-size="9" fill="#7d7d7d" font-weight="normal" text-anchor="start">c=1 s=0 d=0</text><text x="142.0" y="394.0" font-family="Helvetica,Arial,sans-serif" font-size="10" fill="#1a1a1a" font-weight="normal" text-anchor="end">lita</text><rect x="150.0" y="385.5" width="1.0" height="11.0" fill="#9bbcd4"/><rect x="150.0" y="385.5" width="48.0" height="11.0" fill="#c66020"/><text x="636.0" y="394.0" font-family="Helvetica,Arial,sans-serif" font-size="9" fill="#7d7d7d" font-weight="normal" text-anchor="start">c=1 s=0 d=0</text><text x="142.0" y="416.0" font-family="Helvetica,Arial,sans-serif" font-size="10" fill="#1a1a1a" font-weight="normal" text-anchor="end">mambasa</text><rect x="150.0" y="407.5" width="1.0" height="11.0" fill="#9bbcd4"/><rect x="150.0" y="407.5" width="1.0" height="11.0" fill="#c66020"/><text x="636.0" y="416.0" font-family="Helvetica,Arial,sans-serif" font-size="9" fill="#7d7d7d" font-weight="normal" text-anchor="start">c=0 s=0 d=0</text><text x="142.0" y="438.0" font-family="Helvetica,Arial,sans-serif" font-size="10" fill="#1a1a1a" font-weight="normal" text-anchor="end">mangala</text><rect x="150.0" y="429.5" width="1.0" height="11.0" fill="#9bbcd4"/><rect x="150.0" y="429.5" width="48.0" height="11.0" fill="#c66020"/><text x="636.0" y="438.0" font-family="Helvetica,Arial,sans-serif" font-size="9" fill="#7d7d7d" font-weight="normal" text-anchor="start">c=1 s=0 d=0</text><text x="142.0" y="460.0" font-family="Helvetica,Arial,sans-serif" font-size="10" fill="#1a1a1a" font-weight="normal" text-anchor="end">miti-murhesa</text><rect x="150.0" y="451.5" width="1.0" height="11.0" fill="#9bbcd4"/><rect x="150.0" y="451.5" width="144.0" height="11.0" fill="#c66020"/><line x1="198.0" y1="449.5" x2="198.0" y2="464.5" stroke="#1a1a1a" stroke-width="2"/><text x="636.0" y="460.0" font-family="Helvetica,Arial,sans-serif" font-size="9" fill="#7d7d7d" font-weight="normal" text-anchor="start">c=3 s=0 d=1</text><text x="142.0" y="482.0" font-family="Helvetica,Arial,sans-serif" font-size="10" fill="#1a1a1a" font-weight="normal" text-anchor="end">mongbwalu</text><rect x="150.0" y="473.5" width="1.0" height="11.0" fill="#9bbcd4"/><rect x="150.0" y="473.5" width="2256.0" height="11.0" fill="#c66020"/><line x1="630.0" y1="471.5" x2="630.0" y2="486.5" stroke="#1a1a1a" stroke-width="2"/><text x="636.0" y="482.0" font-family="Helvetica,Arial,sans-serif" font-size="9" fill="#7d7d7d" font-weight="normal" text-anchor="start">c=47 s=0 d=10</text><text x="142.0" y="504.0" font-family="Helvetica,Arial,sans-serif" font-size="10" fill="#1a1a1a" font-weight="normal" text-anchor="end">nizi</text><rect x="150.0" y="495.5" width="1.0" height="11.0" fill="#9bbcd4"/><rect x="150.0" y="495.5" width="96.0" height="11.0" fill="#c66020"/><text x="636.0" y="504.0" font-family="Helvetica,Arial,sans-serif" font-size="9" fill="#7d7d7d" font-weight="normal" text-anchor="start">c=2 s=0 d=0</text><text x="142.0" y="526.0" font-family="Helvetica,Arial,sans-serif" font-size="10" fill="#1a1a1a" font-weight="normal" text-anchor="end">nyankunde</text><rect x="150.0" y="517.5" width="1.0" height="11.0" fill="#9bbcd4"/><rect x="150.0" y="517.5" width="912.0" height="11.0" fill="#c66020"/><line x1="198.0" y1="515.5" x2="198.0" y2="530.5" stroke="#1a1a1a" stroke-width="2"/><text x="636.0" y="526.0" font-family="Helvetica,Arial,sans-serif" font-size="9" fill="#7d7d7d" font-weight="normal" text-anchor="start">c=19 s=0 d=1</text><text x="142.0" y="548.0" font-family="Helvetica,Arial,sans-serif" font-size="10" fill="#1a1a1a" font-weight="normal" text-anchor="end">oicha</text><rect x="150.0" y="539.5" width="1.0" height="11.0" fill="#9bbcd4"/><rect x="150.0" y="539.5" width="48.0" height="11.0" fill="#c66020"/><text x="636.0" y="548.0" font-family="Helvetica,Arial,sans-serif" font-size="9" fill="#7d7d7d" font-weight="normal" text-anchor="start">c=1 s=0 d=0</text><text x="142.0" y="570.0" font-family="Helvetica,Arial,sans-serif" font-size="10" fill="#1a1a1a" font-weight="normal" text-anchor="end">rimba</text><rect x="150.0" y="561.5" width="1.0" height="11.0" fill="#9bbcd4"/><rect x="150.0" y="561.5" width="1.0" height="11.0" fill="#c66020"/><text x="636.0" y="570.0" font-family="Helvetica,Arial,sans-serif" font-size="9" fill="#7d7d7d" font-weight="normal" text-anchor="start">c=0 s=0 d=0</text><text x="142.0" y="592.0" font-family="Helvetica,Arial,sans-serif" font-size="10" fill="#1a1a1a" font-weight="normal" text-anchor="end">rwampara</text><rect x="150.0" y="583.5" width="1.0" height="11.0" fill="#9bbcd4"/><rect x="150.0" y="583.5" width="3120.0" height="11.0" fill="#c66020"/><line x1="774.0" y1="581.5" x2="774.0" y2="596.5" stroke="#1a1a1a" stroke-width="2"/><text x="636.0" y="592.0" font-family="Helvetica,Arial,sans-serif" font-size="9" fill="#7d7d7d" font-weight="normal" text-anchor="start">c=65 s=0 d=13</text><text x="20.0" y="620.0" font-family="Helvetica,Arial,sans-serif" font-size="8" fill="#7d7d7d" font-weight="normal" text-anchor="start">Sibling-HZ clusters: spec section 6.9 doctrine. Confirmed deaths trail by 1-3 weeks per INRB clinical review queue (spec section 2.3).</text></svg>