<svg xmlns="http://www.w3.org/2000/svg" viewBox="0 0 720 892" width="720" height="892" role="img" aria-labelledby="t"><title id="t">INSP per-zone snapshot, INRB-UMIE consortium release at as_of 2026-07-09</title><text x="20.0" y="18.0" font-family="Helvetica,Arial,sans-serif" font-size="9" fill="#1a1a1a" font-weight="normal" text-anchor="start">Confirmed cases (orange) and confirmed deaths (black tick) per LOVS source zone; sibling-HZ clusters tagged.</text><line x1="150.0" y1="42.0" x2="630.0" y2="42.0" stroke="#7d7d7d" stroke-width="1"/><line x1="150.0" y1="39.0" x2="150.0" y2="42.0" stroke="#7d7d7d" stroke-width="1"/><text x="150.0" y="37.0" font-family="Helvetica,Arial,sans-serif" font-size="8" fill="#7d7d7d" font-weight="normal" text-anchor="middle">0</text><line x1="246.0" y1="39.0" x2="246.0" y2="42.0" stroke="#7d7d7d" stroke-width="1"/><text x="246.0" y="37.0" font-family="Helvetica,Arial,sans-serif" font-size="8" fill="#7d7d7d" font-weight="normal" text-anchor="middle">99</text><line x1="342.0" y1="39.0" x2="342.0" y2="42.0" stroke="#7d7d7d" stroke-width="1"/><text x="342.0" y="37.0" font-family="Helvetica,Arial,sans-serif" font-size="8" fill="#7d7d7d" font-weight="normal" text-anchor="middle">198</text><line x1="438.0" y1="39.0" x2="438.0" y2="42.0" stroke="#7d7d7d" stroke-width="1"/><text x="438.0" y="37.0" font-family="Helvetica,Arial,sans-serif" font-size="8" fill="#7d7d7d" font-weight="normal" text-anchor="middle">297</text><line x1="534.0" y1="39.0" x2="534.0" y2="42.0" stroke="#7d7d7d" stroke-width="1"/><text x="534.0" y="37.0" font-family="Helvetica,Arial,sans-serif" font-size="8" fill="#7d7d7d" font-weight="normal" text-anchor="middle">396</text><line x1="630.0" y1="39.0" x2="630.0" y2="42.0" stroke="#7d7d7d" stroke-width="1"/><text x="630.0" y="37.0" font-family="Helvetica,Arial,sans-serif" font-size="8" fill="#7d7d7d" font-weight="normal" text-anchor="middle">495</text><text x="142.0" y="64.0" font-family="Helvetica,Arial,sans-serif" font-size="10" fill="#1a1a1a" font-weight="normal" text-anchor="end">aru</text><rect x="150.0" y="55.5" width="2.9" height="11.0" fill="#c66020"/><line x1="151.0" y1="53.5" x2="151.0" y2="68.5" stroke="#1a1a1a" stroke-width="2"/><text x="636.0" y="64.0" font-family="Helvetica,Arial,sans-serif" font-size="9" fill="#7d7d7d" font-weight="normal" text-anchor="start">c=3 d=1</text><text x="142.0" y="86.0" font-family="Helvetica,Arial,sans-serif" font-size="10" fill="#1a1a1a" font-weight="normal" text-anchor="end">aungba</text><rect x="150.0" y="77.5" width="5.8" height="11.0" fill="#c66020"/><line x1="151.9" y1="75.5" x2="151.9" y2="90.5" stroke="#1a1a1a" stroke-width="2"/><text x="636.0" y="86.0" font-family="Helvetica,Arial,sans-serif" font-size="9" fill="#7d7d7d" font-weight="normal" text-anchor="start">c=6 d=2</text><text x="142.0" y="108.0" font-family="Helvetica,Arial,sans-serif" font-size="10" fill="#1a1a1a" font-weight="normal" text-anchor="end">bambu</text><rect x="150.0" y="99.5" width="28.1" height="11.0" fill="#c66020"/><line x1="159.7" y1="97.5" x2="159.7" y2="112.5" stroke="#1a1a1a" stroke-width="2"/><text x="636.0" y="108.0" font-family="Helvetica,Arial,sans-serif" font-size="9" fill="#7d7d7d" font-weight="normal" text-anchor="start">c=29 d=10</text><text x="142.0" y="130.0" font-family="Helvetica,Arial,sans-serif" font-size="10" fill="#1a1a1a" font-weight="normal" text-anchor="end">beni-cod</text><rect x="150.0" y="121.5" width="29.1" height="11.0" fill="#c66020"/><line x1="169.4" y1="119.5" x2="169.4" y2="134.5" stroke="#1a1a1a" stroke-width="2"/><text x="636.0" y="130.0" font-family="Helvetica,Arial,sans-serif" font-size="9" fill="#7d7d7d" font-weight="normal" text-anchor="start">c=30 d=20</text><text x="142.0" y="152.0" font-family="Helvetica,Arial,sans-serif" font-size="10" fill="#1a1a1a" font-weight="normal" text-anchor="end">boga</text><rect x="150.0" y="143.5" width="1.0" height="11.0" fill="#c66020"/><line x1="151.0" y1="141.5" x2="151.0" y2="156.5" stroke="#1a1a1a" stroke-width="2"/><text x="636.0" y="152.0" font-family="Helvetica,Arial,sans-serif" font-size="9" fill="#7d7d7d" font-weight="normal" text-anchor="start">c=1 d=1</text><text x="142.0" y="174.0" font-family="Helvetica,Arial,sans-serif" font-size="10" fill="#1a1a1a" font-weight="normal" text-anchor="end">bunia</text><rect x="150.0" y="165.5" width="480.0" height="11.0" fill="#c66020"/><line x1="294.5" y1="163.5" x2="294.5" y2="178.5" stroke="#1a1a1a" stroke-width="2"/><text x="636.0" y="174.0" font-family="Helvetica,Arial,sans-serif" font-size="9" fill="#7d7d7d" font-weight="normal" text-anchor="start">c=495 d=149</text><text x="142.0" y="196.0" font-family="Helvetica,Arial,sans-serif" font-size="10" fill="#1a1a1a" font-weight="normal" text-anchor="end">butembo</text><rect x="150.0" y="187.5" width="41.7" height="11.0" fill="#c66020"/><line x1="169.4" y1="185.5" x2="169.4" y2="200.5" stroke="#1a1a1a" stroke-width="2"/><text x="636.0" y="196.0" font-family="Helvetica,Arial,sans-serif" font-size="9" fill="#7d7d7d" font-weight="normal" text-anchor="start">c=43 d=20</text><text x="142.0" y="218.0" font-family="Helvetica,Arial,sans-serif" font-size="10" fill="#1a1a1a" font-weight="normal" text-anchor="end">damas</text><rect x="150.0" y="209.5" width="4.8" height="11.0" fill="#c66020"/><text x="636.0" y="218.0" font-family="Helvetica,Arial,sans-serif" font-size="9" fill="#7d7d7d" font-weight="normal" text-anchor="start">c=5 d=0</text><text x="142.0" y="240.0" font-family="Helvetica,Arial,sans-serif" font-size="10" fill="#1a1a1a" font-weight="normal" text-anchor="end">drodro</text><rect x="150.0" y="231.5" width="2.9" height="11.0" fill="#c66020"/><line x1="152.9" y1="229.5" x2="152.9" y2="244.5" stroke="#1a1a1a" stroke-width="2"/><text x="636.0" y="240.0" font-family="Helvetica,Arial,sans-serif" font-size="9" fill="#7d7d7d" font-weight="normal" text-anchor="start">c=3 d=3</text><text x="142.0" y="262.0" font-family="Helvetica,Arial,sans-serif" font-size="10" fill="#1a1a1a" font-weight="normal" text-anchor="end">fataki</text><rect x="150.0" y="253.5" width="3.9" height="11.0" fill="#c66020"/><line x1="151.0" y1="251.5" x2="151.0" y2="266.5" stroke="#1a1a1a" stroke-width="2"/><text x="636.0" y="262.0" font-family="Helvetica,Arial,sans-serif" font-size="9" fill="#7d7d7d" font-weight="normal" text-anchor="start">c=4 d=1</text><text x="142.0" y="284.0" font-family="Helvetica,Arial,sans-serif" font-size="10" fill="#1a1a1a" font-weight="normal" text-anchor="end">gety</text><rect x="150.0" y="275.5" width="1.0" height="11.0" fill="#c66020"/><text x="636.0" y="284.0" font-family="Helvetica,Arial,sans-serif" font-size="9" fill="#7d7d7d" font-weight="normal" text-anchor="start">c=1 d=0</text><text x="142.0" y="306.0" font-family="Helvetica,Arial,sans-serif" font-size="10" fill="#1a1a1a" font-weight="normal" text-anchor="end">goma-cod</text><rect x="150.0" y="297.5" width="1.0" height="11.0" fill="#c66020"/><text x="636.0" y="306.0" font-family="Helvetica,Arial,sans-serif" font-size="9" fill="#7d7d7d" font-weight="normal" text-anchor="start">c=1 d=0</text><text x="142.0" y="328.0" font-family="Helvetica,Arial,sans-serif" font-size="10" fill="#1a1a1a" font-weight="normal" text-anchor="end">kalunguta</text><rect x="150.0" y="319.5" width="1.9" height="11.0" fill="#c66020"/><line x1="151.0" y1="317.5" x2="151.0" y2="332.5" stroke="#1a1a1a" stroke-width="2"/><text x="636.0" y="328.0" font-family="Helvetica,Arial,sans-serif" font-size="9" fill="#7d7d7d" font-weight="normal" text-anchor="start">c=2 d=1</text><text x="142.0" y="350.0" font-family="Helvetica,Arial,sans-serif" font-size="10" fill="#1a1a1a" font-weight="normal" text-anchor="end">kambala</text><rect x="150.0" y="341.5" width="1.9" height="11.0" fill="#c66020"/><line x1="151.9" y1="339.5" x2="151.9" y2="354.5" stroke="#1a1a1a" stroke-width="2"/><text x="636.0" y="350.0" font-family="Helvetica,Arial,sans-serif" font-size="9" fill="#7d7d7d" font-weight="normal" text-anchor="start">c=2 d=2</text><text x="142.0" y="372.0" font-family="Helvetica,Arial,sans-serif" font-size="10" fill="#1a1a1a" font-weight="normal" text-anchor="end">katwa</text><rect x="150.0" y="363.5" width="64.0" height="11.0" fill="#c66020"/><line x1="193.6" y1="361.5" x2="193.6" y2="376.5" stroke="#1a1a1a" stroke-width="2"/><text x="636.0" y="372.0" font-family="Helvetica,Arial,sans-serif" font-size="9" fill="#7d7d7d" font-weight="normal" text-anchor="start">c=66 d=45</text><text x="142.0" y="394.0" font-family="Helvetica,Arial,sans-serif" font-size="10" fill="#1a1a1a" font-weight="normal" text-anchor="end">kilo</text><rect x="150.0" y="385.5" width="8.7" height="11.0" fill="#c66020"/><line x1="151.0" y1="383.5" x2="151.0" y2="398.5" stroke="#1a1a1a" stroke-width="2"/><text x="636.0" y="394.0" font-family="Helvetica,Arial,sans-serif" font-size="9" fill="#7d7d7d" font-weight="normal" text-anchor="start">c=9 d=1</text><text x="142.0" y="416.0" font-family="Helvetica,Arial,sans-serif" font-size="10" fill="#1a1a1a" font-weight="normal" text-anchor="end">komanda</text><rect x="150.0" y="407.5" width="24.2" height="11.0" fill="#c66020"/><line x1="157.8" y1="405.5" x2="157.8" y2="420.5" stroke="#1a1a1a" stroke-width="2"/><text x="636.0" y="416.0" font-family="Helvetica,Arial,sans-serif" font-size="9" fill="#7d7d7d" font-weight="normal" text-anchor="start">c=25 d=8</text><text x="142.0" y="438.0" font-family="Helvetica,Arial,sans-serif" font-size="10" fill="#1a1a1a" font-weight="normal" text-anchor="end">kyondo</text><rect x="150.0" y="429.5" width="4.8" height="11.0" fill="#c66020"/><line x1="152.9" y1="427.5" x2="152.9" y2="442.5" stroke="#1a1a1a" stroke-width="2"/><text x="636.0" y="438.0" font-family="Helvetica,Arial,sans-serif" font-size="9" fill="#7d7d7d" font-weight="normal" text-anchor="start">c=5 d=3</text><text x="142.0" y="460.0" font-family="Helvetica,Arial,sans-serif" font-size="10" fill="#1a1a1a" font-weight="normal" text-anchor="end">lita</text><rect x="150.0" y="451.5" width="40.7" height="11.0" fill="#c66020"/><line x1="166.5" y1="449.5" x2="166.5" y2="464.5" stroke="#1a1a1a" stroke-width="2"/><text x="636.0" y="460.0" font-family="Helvetica,Arial,sans-serif" font-size="9" fill="#7d7d7d" font-weight="normal" text-anchor="start">c=42 d=17</text><text x="142.0" y="482.0" font-family="Helvetica,Arial,sans-serif" font-size="10" fill="#1a1a1a" font-weight="normal" text-anchor="end">logo</text><rect x="150.0" y="473.5" width="6.8" height="11.0" fill="#c66020"/><text x="636.0" y="482.0" font-family="Helvetica,Arial,sans-serif" font-size="9" fill="#7d7d7d" font-weight="normal" text-anchor="start">c=7 d=0</text><text x="142.0" y="504.0" font-family="Helvetica,Arial,sans-serif" font-size="10" fill="#1a1a1a" font-weight="normal" text-anchor="end">lolwa</text><rect x="150.0" y="495.5" width="1.0" height="11.0" fill="#c66020"/><line x1="151.0" y1="493.5" x2="151.0" y2="508.5" stroke="#1a1a1a" stroke-width="2"/><text x="636.0" y="504.0" font-family="Helvetica,Arial,sans-serif" font-size="9" fill="#7d7d7d" font-weight="normal" text-anchor="start">c=1 d=1</text><text x="142.0" y="526.0" font-family="Helvetica,Arial,sans-serif" font-size="10" fill="#1a1a1a" font-weight="normal" text-anchor="end">mabalako</text><rect x="150.0" y="517.5" width="1.0" height="11.0" fill="#c66020"/><text x="636.0" y="526.0" font-family="Helvetica,Arial,sans-serif" font-size="9" fill="#7d7d7d" font-weight="normal" text-anchor="start">c=1 d=0</text><text x="142.0" y="548.0" font-family="Helvetica,Arial,sans-serif" font-size="10" fill="#1a1a1a" font-weight="normal" text-anchor="end">mambasa</text><rect x="150.0" y="539.5" width="4.8" height="11.0" fill="#c66020"/><line x1="153.9" y1="537.5" x2="153.9" y2="552.5" stroke="#1a1a1a" stroke-width="2"/><text x="636.0" y="548.0" font-family="Helvetica,Arial,sans-serif" font-size="9" fill="#7d7d7d" font-weight="normal" text-anchor="start">c=5 d=4</text><text x="142.0" y="570.0" font-family="Helvetica,Arial,sans-serif" font-size="10" fill="#1a1a1a" font-weight="normal" text-anchor="end">mandima</text><rect x="150.0" y="561.5" width="4.8" height="11.0" fill="#c66020"/><line x1="151.9" y1="559.5" x2="151.9" y2="574.5" stroke="#1a1a1a" stroke-width="2"/><text x="636.0" y="570.0" font-family="Helvetica,Arial,sans-serif" font-size="9" fill="#7d7d7d" font-weight="normal" text-anchor="start">c=5 d=2</text><text x="142.0" y="592.0" font-family="Helvetica,Arial,sans-serif" font-size="10" fill="#1a1a1a" font-weight="normal" text-anchor="end">mangala</text><rect x="150.0" y="583.5" width="41.7" height="11.0" fill="#c66020"/><line x1="172.3" y1="581.5" x2="172.3" y2="596.5" stroke="#1a1a1a" stroke-width="2"/><text x="636.0" y="592.0" font-family="Helvetica,Arial,sans-serif" font-size="9" fill="#7d7d7d" font-weight="normal" text-anchor="start">c=43 d=23</text><text x="142.0" y="614.0" font-family="Helvetica,Arial,sans-serif" font-size="10" fill="#1a1a1a" font-weight="normal" text-anchor="end">masereka</text><rect x="150.0" y="605.5" width="2.9" height="11.0" fill="#c66020"/><text x="636.0" y="614.0" font-family="Helvetica,Arial,sans-serif" font-size="9" fill="#7d7d7d" font-weight="normal" text-anchor="start">c=3 d=0</text><text x="142.0" y="636.0" font-family="Helvetica,Arial,sans-serif" font-size="10" fill="#1a1a1a" font-weight="normal" text-anchor="end">miti-murhesa</text><rect x="150.0" y="627.5" width="2.9" height="11.0" fill="#c66020"/><line x1="151.0" y1="625.5" x2="151.0" y2="640.5" stroke="#1a1a1a" stroke-width="2"/><text x="636.0" y="636.0" font-family="Helvetica,Arial,sans-serif" font-size="9" fill="#7d7d7d" font-weight="normal" text-anchor="start">c=3 d=1</text><text x="142.0" y="658.0" font-family="Helvetica,Arial,sans-serif" font-size="10" fill="#1a1a1a" font-weight="normal" text-anchor="end">mongbwalu</text><rect x="150.0" y="649.5" width="317.1" height="11.0" fill="#c66020"/><line x1="314.8" y1="647.5" x2="314.8" y2="662.5" stroke="#1a1a1a" stroke-width="2"/><text x="636.0" y="658.0" font-family="Helvetica,Arial,sans-serif" font-size="9" fill="#7d7d7d" font-weight="normal" text-anchor="start">c=327 d=170</text><text x="142.0" y="680.0" font-family="Helvetica,Arial,sans-serif" font-size="10" fill="#1a1a1a" font-weight="normal" text-anchor="end">musienene</text><rect x="150.0" y="671.5" width="8.7" height="11.0" fill="#c66020"/><line x1="151.9" y1="669.5" x2="151.9" y2="684.5" stroke="#1a1a1a" stroke-width="2"/><text x="636.0" y="680.0" font-family="Helvetica,Arial,sans-serif" font-size="9" fill="#7d7d7d" font-weight="normal" text-anchor="start">c=9 d=2</text><text x="142.0" y="702.0" font-family="Helvetica,Arial,sans-serif" font-size="10" fill="#1a1a1a" font-weight="normal" text-anchor="end">nia-nia</text><rect x="150.0" y="693.5" width="33.9" height="11.0" fill="#c66020"/><line x1="162.6" y1="691.5" x2="162.6" y2="706.5" stroke="#1a1a1a" stroke-width="2"/><text x="636.0" y="702.0" font-family="Helvetica,Arial,sans-serif" font-size="9" fill="#7d7d7d" font-weight="normal" text-anchor="start">c=35 d=13</text><text x="142.0" y="724.0" font-family="Helvetica,Arial,sans-serif" font-size="10" fill="#1a1a1a" font-weight="normal" text-anchor="end">nizi</text><rect x="150.0" y="715.5" width="103.8" height="11.0" fill="#c66020"/><line x1="184.9" y1="713.5" x2="184.9" y2="728.5" stroke="#1a1a1a" stroke-width="2"/><text x="636.0" y="724.0" font-family="Helvetica,Arial,sans-serif" font-size="9" fill="#7d7d7d" font-weight="normal" text-anchor="start">c=107 d=36</text><text x="142.0" y="746.0" font-family="Helvetica,Arial,sans-serif" font-size="10" fill="#1a1a1a" font-weight="normal" text-anchor="end">nyankunde</text><rect x="150.0" y="737.5" width="94.1" height="11.0" fill="#c66020"/><line x1="171.3" y1="735.5" x2="171.3" y2="750.5" stroke="#1a1a1a" stroke-width="2"/><text x="636.0" y="746.0" font-family="Helvetica,Arial,sans-serif" font-size="9" fill="#7d7d7d" font-weight="normal" text-anchor="start">c=97 d=22</text><text x="142.0" y="768.0" font-family="Helvetica,Arial,sans-serif" font-size="10" fill="#1a1a1a" font-weight="normal" text-anchor="end">oicha</text><rect x="150.0" y="759.5" width="2.9" height="11.0" fill="#c66020"/><line x1="151.9" y1="757.5" x2="151.9" y2="772.5" stroke="#1a1a1a" stroke-width="2"/><text x="636.0" y="768.0" font-family="Helvetica,Arial,sans-serif" font-size="9" fill="#7d7d7d" font-weight="normal" text-anchor="start">c=3 d=2</text><text x="142.0" y="790.0" font-family="Helvetica,Arial,sans-serif" font-size="10" fill="#1a1a1a" font-weight="normal" text-anchor="end">rimba</text><rect x="150.0" y="781.5" width="3.9" height="11.0" fill="#c66020"/><text x="636.0" y="790.0" font-family="Helvetica,Arial,sans-serif" font-size="9" fill="#7d7d7d" font-weight="normal" text-anchor="start">c=4 d=0</text><text x="142.0" y="812.0" font-family="Helvetica,Arial,sans-serif" font-size="10" fill="#1a1a1a" font-weight="normal" text-anchor="end">rwampara</text><rect x="150.0" y="803.5" width="361.7" height="11.0" fill="#c66020"/><line x1="230.5" y1="801.5" x2="230.5" y2="816.5" stroke="#1a1a1a" stroke-width="2"/><text x="636.0" y="812.0" font-family="Helvetica,Arial,sans-serif" font-size="9" fill="#7d7d7d" font-weight="normal" text-anchor="start">c=373 d=83</text><text x="142.0" y="834.0" font-family="Helvetica,Arial,sans-serif" font-size="10" fill="#1a1a1a" font-weight="normal" text-anchor="end">tchomia</text><rect x="150.0" y="825.5" width="16.5" height="11.0" fill="#c66020"/><line x1="153.9" y1="823.5" x2="153.9" y2="838.5" stroke="#1a1a1a" stroke-width="2"/><text x="636.0" y="834.0" font-family="Helvetica,Arial,sans-serif" font-size="9" fill="#7d7d7d" font-weight="normal" text-anchor="start">c=17 d=4</text><text x="142.0" y="856.0" font-family="Helvetica,Arial,sans-serif" font-size="10" fill="#1a1a1a" font-weight="normal" text-anchor="end">vuhovi</text><rect x="150.0" y="847.5" width="1.0" height="11.0" fill="#c66020"/><line x1="151.0" y1="845.5" x2="151.0" y2="860.5" stroke="#1a1a1a" stroke-width="2"/><text x="636.0" y="856.0" font-family="Helvetica,Arial,sans-serif" font-size="9" fill="#7d7d7d" font-weight="normal" text-anchor="start">c=1 d=1</text><text x="20.0" y="884.0" font-family="Helvetica,Arial,sans-serif" font-size="8" fill="#7d7d7d" font-weight="normal" text-anchor="start">Sibling-HZ clusters: spec section 6.9 doctrine. Confirmed deaths trail by 1-3 weeks per INRB clinical review queue (spec section 2.3).</text></svg>